# xmcd
#
# Track frame offsets:
#	150
#	15278
#	35903
#	48184
#	64125
#	73718
#	86701
#	100126
#	113890
#	127010
#	142873
#
# Disc length: 2085 seconds
#
# Revision: 0
# Processed by: cddbd v1.5.2PL0 Copyright (c) Steve Scherf et al.
# Submitted via: EasyCDDAExtractor 11.1.0.1
#
DISCID=9408230b
DTITLE=Thopper - Cool water
DYEAR=2010
DGENRE=country
TTITLE0=Colorado River
TTITLE1=Cool water
TTITLE2=Nothing matches her
TTITLE3=My babygirl
TTITLE4=The big one
TTITLE5=Laid back'n low key
TTITLE6=Perhaps love
TTITLE7=Slow hand
TTITLE8=I miss you pal
TTITLE9=She's not crying anymore
TTITLE10=Joe from Idaho
EXTD=
EXTT0=
EXTT1=
EXTT2=
EXTT3=
EXTT4=
EXTT5=
EXTT6=
EXTT7=
EXTT8=
EXTT9=
EXTT10=
PLAYORDER=
